<?xml version="1.0" encoding="UTF-8" standalone="no"?>
<!-- Created with Inkscape (http://www.inkscape.org/) -->

<svg
   width="800.82428"
   height="547.83508"
   viewBox="0 0 211.88476 144.94803"
   version="1.1"
   id="svg1"
   sodipodi:docname="q.svg"
   inkscape:version="1.4 (e7c3feb100, 2024-10-09)"
   xmlns:inkscape="http://www.inkscape.org/namespaces/inkscape"
   xmlns:sodipodi="http://sodipodi.sourceforge.net/DTD/sodipodi-0.dtd"
   xmlns="http://www.w3.org/2000/svg"
   xmlns:svg="http://www.w3.org/2000/svg">
  <sodipodi:namedview
     id="namedview1"
     pagecolor="#212121"
     bordercolor="#000000"
     borderopacity="0.25"
     inkscape:showpageshadow="2"
     inkscape:pageopacity="0.0"
     inkscape:pagecheckerboard="0"
     inkscape:deskcolor="#212121"
     inkscape:document-units="mm"
     showborder="false"
     inkscape:zoom="0.54531321"
     inkscape:cx="761.03052"
     inkscape:cy="534.55517"
     inkscape:window-width="2160"
     inkscape:window-height="1368"
     inkscape:window-x="0"
     inkscape:window-y="0"
     inkscape:window-maximized="1"
     inkscape:current-layer="layer1" />
  <defs
     id="defs1">
    <rect
       x="15.128298"
       y="204.7363"
       width="595.04639"
       height="313.66003"
       id="rect1" />
    <rect
       x="15.128298"
       y="204.7363"
       width="595.04639"
       height="313.66003"
       id="rect1-5" />
  </defs>
  <g
     inkscape:label="Layer 1"
     inkscape:groupmode="layer"
     id="layer1"
     style="mix-blend-mode:normal"
     transform="translate(67.893251,-71.483868)">
    <g
       id="text1-3"
       style="font-size:12px;line-height:1.5;font-family:'Liberation Mono';-inkscape-font-specification:'Liberation Mono, Normal';white-space:pre;fill:#1b1b1b"
       transform="matrix(0.75815387,0,0,0.75815387,-79.878598,-86.37771)"
       aria-label="&lt;template&gt;&#10;  &lt;button @click=&quot;greet&quot;&gt;Click&lt;/button&gt;    &#10;&lt;/template&gt;&#10;&#10;&lt;script&gt;&#10;  export default class {&#10;    greet() {&#10;      alert('Welcome to Peak.js!')&#10;    }&#10;  }&#10;&lt;/script&gt;">
      <path
         style="fill:#d4d4d4"
         d="m 15.808594,213.56796 v -1.20118 l 5.830078,-2.44921 v 0.90234 l -5.027344,2.14453 5.027344,2.15039 v 0.89649 z"
         id="path155" />
      <path
         style="fill:#85e89d"
         d="m 23.443359,211.40585 v -0.83203 h 0.996094 l 0.339844,-1.65235 h 0.703125 v 1.65235 h 2.53125 v 0.83203 h -2.53125 v 3.82031 q 0,0.46289 0.246094,0.68555 0.251953,0.22265 0.820312,0.22265 0.785156,0 1.740234,-0.19922 v 0.80274 q -0.990234,0.26953 -1.96289,0.26953 -0.949219,0 -1.423828,-0.39844 -0.47461,-0.4043 -0.47461,-1.27148 v -3.93164 z m 7.97461,2.56054 q 0,1.06641 0.46875,1.66993 0.474609,0.60351 1.294922,0.60351 0.603515,0 1.054687,-0.25781 0.457031,-0.26367 0.609375,-0.71485 l 0.925781,0.26368 q -0.257812,0.72656 -0.949218,1.11328 -0.685547,0.38672 -1.640625,0.38672 -1.382813,0 -2.126954,-0.86133 -0.74414,-0.86133 -0.74414,-2.4668 0,-1.56445 0.726562,-2.40234 0.732422,-0.84375 2.109375,-0.84375 1.376953,0 2.085938,0.83789 0.708984,0.83789 0.708984,2.53125 v 0.14062 z m 1.740234,-2.73047 q -0.785156,0 -1.242187,0.51563 -0.457032,0.50977 -0.486329,1.40625 h 3.421875 q -0.164062,-1.92188 -1.693359,-1.92188 z m 6.685547,5.67774 v -4.01953 q 0,-0.90235 -0.146484,-1.25977 -0.140625,-0.36328 -0.521485,-0.36328 -0.375,0 -0.609375,0.5625 -0.228515,0.5625 -0.228515,1.52344 v 3.55664 h -0.990235 v -4.98633 q 0,-1.10742 -0.03516,-1.35351 h 0.873047 l 0.03516,0.74414 v 0.28125 h 0.01172 q 0.199219,-0.59766 0.503906,-0.86719 0.304688,-0.27539 0.761719,-0.27539 0.515625,0 0.767578,0.28125 0.257812,0.28125 0.369141,0.86719 h 0.01172 q 0.234375,-0.6211 0.556641,-0.88477 0.328125,-0.26367 0.826172,-0.26367 0.691406,0 0.990234,0.5039 0.298828,0.50391 0.298828,1.72852 v 4.22461 h -0.984375 v -4.01953 q 0,-0.90235 -0.146484,-1.25977 -0.140625,-0.36328 -0.521484,-0.36328 -0.386719,0 -0.615235,0.49219 -0.222656,0.49219 -0.222656,1.47656 v 3.67383 z m 10.476562,-3.19922 q 0,3.31641 -2.296875,3.31641 -1.441406,0 -1.939453,-1.07813 h -0.0293 q 0.02344,0.0469 0.02344,0.97266 v 2.47851 h -1.060547 v -7.51757 q 0,-0.9961 -0.03516,-1.3125 h 1.02539 q 0.0059,0.0234 0.01758,0.17578 0.01172,0.14648 0.02344,0.43945 0.01758,0.28711 0.01758,0.42773 h 0.02344 q 0.292968,-0.61523 0.74414,-0.89062 0.457032,-0.28125 1.189453,-0.28125 1.160157,0 1.728516,0.80273 0.568359,0.79688 0.568359,2.4668 z m -1.089843,0 q 0,-1.32422 -0.357422,-1.88672 -0.357422,-0.56836 -1.125,-0.56836 -0.884766,0 -1.277344,0.64453 -0.392578,0.63868 -0.392578,1.93946 0,1.24804 0.392578,1.82812 0.392578,0.58008 1.265625,0.58008 0.779297,0 1.136719,-0.5918 0.357422,-0.59179 0.357422,-1.94531 z m 6.796875,2.33789 1.646484,0.0293 v 0.83203 l -2.167969,-0.0234 q -0.662109,-0.11719 -0.966797,-0.52734 -0.128906,-0.17578 -0.146484,-0.96094 v -6.35156 h -1.693359 v -0.83203 h 2.748047 v 7.30664 q 0.0059,0.26367 0.146484,0.39258 0.123047,0.11132 0.433594,0.13476 z m 0.02344,0.0293 z m -0.603515,-0.55664 z m 0.09375,1.38867 z m -1.148438,-0.83203 v -0.67969 z m 10.394531,0.18164 q 0.152344,0 0.345703,-0.041 v 0.65625 q -0.398437,0.0937 -0.814453,0.0937 -0.585937,0 -0.855468,-0.30468 -0.263672,-0.31055 -0.298829,-0.9668 h -0.03516 q -0.380859,0.70898 -0.902344,1.01953 -0.515625,0.31055 -1.277343,0.31055 -0.925782,0 -1.394532,-0.50391 -0.46875,-0.50391 -0.46875,-1.38281 0,-2.04492 2.660157,-2.07422 l 1.382812,-0.0234 v -0.3457 q 0,-0.76758 -0.310547,-1.10156 -0.310547,-0.33985 -0.990234,-0.33985 -0.691406,0 -0.996094,0.2461 -0.304687,0.24609 -0.363281,0.76171 l -1.101563,-0.0996 q 0.269532,-1.71094 2.478516,-1.71094 1.171875,0 1.757813,0.55078 0.591796,0.54492 0.591796,1.58203 v 2.73047 q 0,0.46875 0.123047,0.70898 0.123047,0.23438 0.46875,0.23438 z m -3.568359,-0.0352 q 0.5625,0 0.996094,-0.26953 0.433593,-0.26953 0.673828,-0.7207 0.240234,-0.45117 0.240234,-0.93164 v -0.52149 l -1.113281,0.0234 q -0.691406,0.0117 -1.054688,0.15234 -0.363281,0.14063 -0.568359,0.4336 -0.199219,0.28711 -0.199219,0.76758 0,0.48046 0.257813,0.77343 0.263672,0.29297 0.767578,0.29297 z m 5.431641,-4.82226 v -0.83203 h 0.996093 l 0.339844,-1.65235 h 0.703125 v 1.65235 h 2.53125 v 0.83203 h -2.53125 v 3.82031 q 0,0.46289 0.246094,0.68555 0.251953,0.22265 0.820312,0.22265 0.785157,0 1.740235,-0.19922 v 0.80274 q -0.990235,0.26953 -1.962891,0.26953 -0.949219,0 -1.423828,-0.39844 -0.474609,-0.4043 -0.474609,-1.27148 v -3.93164 z m 7.974609,2.56054 q 0,1.06641 0.46875,1.66993 0.474609,0.60351 1.294922,0.60351 0.603515,0 1.054687,-0.25781 0.457032,-0.26367 0.609375,-0.71485 l 0.925782,0.26368 q -0.257813,0.72656 -0.949219,1.11328 -0.685547,0.38672 -1.640625,0.38672 -1.382813,0 -2.126953,-0.86133 -0.744141,-0.86133 -0.744141,-2.4668 0,-1.56445 0.726563,-2.40234 0.732421,-0.84375 2.109375,-0.84375 1.376953,0 2.085937,0.83789 0.708984,0.83789 0.708984,2.53125 v 0.14062 z m 1.740234,-2.73047 q -0.785156,0 -1.242187,0.51563 -0.457031,0.50977 -0.486328,1.40625 h 3.421875 q -0.164063,-1.92188 -1.69336,-1.92188 z"
         id="path156" />
      <path
         style="fill:#d4d4d4"
         d="m 80.619141,216.01132 v -0.89649 l 5.027343,-2.15039 -5.027343,-2.14453 v -0.90234 l 5.830078,2.44921 v 1.20118 z"
         id="path157" />
      <path
         style="fill:#d4d4d4"
         d="m 30.210937,231.56796 v -1.20118 l 5.830079,-2.44921 v 0.90234 l -5.027344,2.14453 5.027344,2.15039 v 0.89649 z"
         id="path158" />
      <path
         style="fill:#85e89d"
         d="m 43.119141,231.71444 q 0,1.66406 -0.597657,2.49023 -0.591797,0.82618 -1.699218,0.82618 -1.429688,0 -1.957032,-1.07813 h -0.01172 q 0,0.28125 -0.02344,0.58594 -0.01758,0.30469 -0.0293,0.375 H 37.78125 q 0.03516,-0.31641 0.03516,-1.30664 v -7.38867 h 1.054688 v 2.47851 q 0,0.38086 -0.02344,0.91992 h 0.02344 q 0.533203,-1.17187 1.957031,-1.17187 2.291016,0 2.291016,3.26953 z m -1.089844,0.0352 q 0,-1.3125 -0.363281,-1.89844 -0.357422,-0.5918 -1.125,-0.5918 -0.873047,0 -1.271485,0.64453 -0.398437,0.63868 -0.398437,1.93946 0,1.22461 0.386718,1.8164 0.386719,0.5918 1.271485,0.5918 0.791015,0 1.142578,-0.60938 0.357422,-0.61523 0.357422,-1.89257 z m 4.042969,-3.17578 v 4.01953 q 0,0.91406 0.287109,1.27148 0.287109,0.35156 1.025391,0.35156 0.755859,0 1.195312,-0.51562 0.439453,-0.51563 0.439453,-1.45313 v -3.67382 h 1.060547 v 4.98632 q 0,1.10743 0.03516,1.35352 h -0.996093 q -0.0059,-0.0293 -0.01172,-0.1582 -0.0059,-0.12891 -0.01758,-0.29297 -0.0059,-0.16992 -0.01758,-0.63282 h -0.01758 q -0.363281,0.65625 -0.84375,0.93165 -0.474609,0.26953 -1.183593,0.26953 -1.042969,0 -1.529297,-0.51563 -0.480469,-0.52148 -0.480469,-1.7168 v -4.2246 z m 6.175781,0.83203 v -0.83203 h 0.996094 l 0.339843,-1.65235 h 0.703125 v 1.65235 h 2.53125 v 0.83203 h -2.53125 v 3.82031 q 0,0.46289 0.246094,0.68555 0.251953,0.22265 0.820313,0.22265 0.785156,0 1.740234,-0.19922 v 0.80274 q -0.990234,0.26953 -1.962891,0.26953 -0.949218,0 -1.423828,-0.39844 -0.474609,-0.4043 -0.474609,-1.27148 v -3.93164 z m 7.201172,0 v -0.83203 h 0.996093 l 0.339844,-1.65235 h 0.703125 v 1.65235 h 2.53125 v 0.83203 h -2.53125 v 3.82031 q 0,0.46289 0.246094,0.68555 0.251953,0.22265 0.820312,0.22265 0.785157,0 1.740235,-0.19922 v 0.80274 q -0.990235,0.26953 -1.962891,0.26953 -0.949219,0 -1.423828,-0.39844 -0.474609,-0.4043 -0.474609,-1.27148 v -3.93164 z m 12.515625,2.33203 q 0,1.59961 -0.738282,2.44922 -0.732421,0.84375 -2.121093,0.84375 -1.359375,0 -2.085938,-0.85547 -0.720703,-0.85547 -0.720703,-2.4375 0,-1.63477 0.738281,-2.45508 0.744141,-0.82617 2.103516,-0.82617 1.429687,0 2.126953,0.81445 0.697266,0.81445 0.697266,2.4668 z m -1.107422,0 q 0,-1.25977 -0.404297,-1.88086 -0.398438,-0.6211 -1.294922,-0.6211 -0.908203,0 -1.330078,0.63282 -0.421875,0.63281 -0.421875,1.86914 0,1.23047 0.421875,1.875 0.421875,0.63867 1.265625,0.63867 0.931641,0 1.347656,-0.62695 0.416016,-0.62696 0.416016,-1.88672 z m 6.966797,3.17578 v -4.07227 q 0,-0.79687 -0.310547,-1.18359 -0.304688,-0.38672 -0.978516,-0.38672 -0.726562,0 -1.195312,0.5332 -0.462891,0.52735 -0.462891,1.43555 v 3.67383 h -1.054687 v -4.98633 q 0,-1.10742 -0.03516,-1.35351 H 74.7832 q 0.0059,0.0293 0.01172,0.1582 0.0059,0.1289 0.01172,0.29883 0.01172,0.16406 0.02344,0.62695 h 0.01758 q 0.615235,-1.20117 2.027344,-1.20117 1.013672,0 1.511719,0.55078 0.498047,0.54492 0.498047,1.68164 v 4.22461 z"
         id="path159" />
      <path
         style="fill:#b392f0"
         d="m 94.107422,230.48983 q 0,1.74609 -0.486328,2.7832 -0.480469,1.03125 -1.300782,1.03125 -0.83789,0 -0.83789,-0.91992 v -0.0469 l 0.01172,-0.17578 h -0.03516 q -0.199218,0.51562 -0.5625,0.83203 -0.357422,0.31054 -0.814453,0.31054 -0.621094,0 -0.972656,-0.58593 -0.345703,-0.58594 -0.345703,-1.66993 0,-0.94335 0.28125,-1.78125 0.287109,-0.83789 0.773437,-1.31835 0.492188,-0.48633 1.095703,-0.48633 0.416016,0 0.679688,0.24609 0.269531,0.24024 0.398437,0.76758 h 0.0293 l 0.1875,-0.88477 h 0.679688 l -0.580078,2.97071 q -0.234375,1.23047 -0.234375,1.6289 0,0.51563 0.287109,0.51563 0.457031,0 0.744141,-0.87305 0.292968,-0.87305 0.292968,-2.33203 0,-1.60547 -0.638671,-2.60156 -0.638672,-1.00196 -1.69336,-1.00196 -0.867187,0 -1.535156,0.63282 -0.667969,0.62695 -1.03125,1.76953 -0.363281,1.14258 -0.363281,2.60156 0,1.81055 0.679687,2.89453 0.679688,1.08399 1.863281,1.08399 0.550782,0 1.060547,-0.20508 0.509766,-0.20508 1.101563,-0.72071 l 0.416015,0.50977 q -0.673828,0.58008 -1.30664,0.84375 -0.632813,0.26367 -1.330078,0.26367 -0.966797,0 -1.705078,-0.56836 -0.732422,-0.56836 -1.125,-1.63476 -0.392579,-1.07227 -0.392579,-2.4668 0,-1.67578 0.451172,-2.9707 0.451172,-1.30078 1.289063,-2.00391 0.83789,-0.70898 1.939453,-0.70898 0.925781,0 1.605469,0.5332 0.685547,0.52734 1.054687,1.5 0.369141,0.9668 0.369141,2.23828 z m -2.425781,-0.16992 q 0,-0.62109 -0.205079,-0.9375 -0.205078,-0.32227 -0.550781,-0.32227 -0.36914,0 -0.679687,0.39258 -0.310547,0.38672 -0.503907,1.10156 -0.1875,0.70899 -0.1875,1.48243 0,1.64648 0.667969,1.64648 0.433594,0 0.779297,-0.55664 0.345703,-0.55664 0.509766,-1.47656 0.169922,-0.91992 0.169922,-1.33008 z m 3.421875,1.41797 q 0,-1.58203 0.755859,-2.43164 0.755859,-0.84961 2.185547,-0.84961 1.066406,0 1.757812,0.51562 0.691406,0.50977 0.855466,1.37696 l -1.124997,0.082 q -0.09375,-0.53321 -0.46875,-0.83789 -0.375,-0.31055 -1.066406,-0.31055 -0.925781,0 -1.359375,0.57422 -0.427735,0.57422 -0.427735,1.85742 0,1.30078 0.427735,1.9043 0.433594,0.59765 1.353515,0.59765 0.632813,0 1.048829,-0.31054 0.416015,-0.31055 0.515625,-0.94922 l 1.113279,0.0703 q -0.0762,0.5625 -0.42773,1.02539 -0.345706,0.45703 -0.919924,0.7207 -0.574219,0.25782 -1.283204,0.25782 -1.435546,0 -2.185546,-0.84375 -0.75,-0.84375 -0.75,-2.44922 z m 11.332034,2.31445 1.64648,0.0293 v 0.83203 l -2.16797,-0.0234 q -0.66211,-0.11719 -0.96679,-0.52734 -0.12891,-0.17578 -0.14649,-0.96094 v -6.35156 h -1.69336 v -0.83203 h 2.74805 v 7.30664 q 0.006,0.26367 0.14648,0.39258 0.12305,0.11132 0.4336,0.13476 z m 0.0234,0.0293 z m -0.60351,-0.55664 z m 0.0937,1.38867 z m -1.14844,-0.83203 v -0.67969 z m 8.3086,0 h 2.22656 v 0.83203 h -5.75391 v -0.83203 h 2.47266 v -4.67578 h -1.86914 v -0.83203 h 2.92383 z m -1.17188,-6.73828 v -1.125 h 1.17188 v 1.125 z m 4.76953,4.39453 q 0,-1.58203 0.75586,-2.43164 0.75586,-0.84961 2.18555,-0.84961 1.0664,0 1.75781,0.51562 0.69141,0.50977 0.85547,1.37696 l -1.125,0.082 q -0.0937,-0.53321 -0.46875,-0.83789 -0.375,-0.31055 -1.06641,-0.31055 -0.92578,0 -1.35937,0.57422 -0.42774,0.57422 -0.42774,1.85742 0,1.30078 0.42774,1.9043 0.43359,0.59765 1.35351,0.59765 0.63282,0 1.04883,-0.31054 0.41602,-0.31055 0.51563,-0.94922 l 1.11328,0.0703 q -0.0762,0.5625 -0.42774,1.02539 -0.3457,0.45703 -0.91992,0.7207 -0.57422,0.25782 -1.2832,0.25782 -1.43555,0 -2.18555,-0.84375 -0.75,-0.84375 -0.75,-2.44922 z m 11.79492,3.17578 -2.14453,-2.92383 -0.77344,0.57422 v 2.34961 h -1.05468 v -8.69531 h 1.05468 v 5.43164 l 2.78321,-3.07617 h 1.23633 l -2.57227,2.7246 2.70703,3.61524 z"
         id="path160" />
      <path
         style="fill:#d4d4d4"
         d="m 131.02734,229.89803 v -0.86718 h 5.83008 v 0.86718 z m 0,3 v -0.86718 h 5.83008 v 0.86718 z"
         id="path161" />
      <path
         style="fill:#9ecbff"
         d="m 142.86914,229.96249 h -0.83203 l -0.23438,-3.74414 h 1.3125 z m -2.63086,0 h -0.82617 l -0.24024,-3.74414 h 1.3125 z m 8.11524,7.43554 q -0.98438,0 -1.58204,-0.40429 -0.59765,-0.4043 -0.76171,-1.16016 l 1.07812,-0.14648 q 0.0996,0.43945 0.42773,0.67382 0.33399,0.24024 0.87305,0.24024 1.45313,0 1.45313,-1.8457 v -1.13672 h -0.0117 q -0.28711,0.60351 -0.79688,0.91406 -0.50976,0.31055 -1.21289,0.31055 -1.16015,0 -1.69922,-0.75586 -0.5332,-0.76172 -0.5332,-2.39063 0,-1.6582 0.57422,-2.4375 0.57422,-0.78515 1.76953,-0.78515 0.66211,0 1.14844,0.31054 0.49219,0.30469 0.75586,0.87305 h 0.0176 q 0,-0.17578 0.0234,-0.5918 0.0234,-0.42187 0.0469,-0.49218 h 1.00195 q -0.0352,0.3164 -0.0352,1.3125 v 4.83984 q 0,1.33008 -0.62109,1.99805 -0.62109,0.67382 -1.91601,0.67382 z m 1.48828,-5.71289 q 0,-1.13086 -0.43946,-1.77539 -0.43945,-0.65039 -1.20703,-0.65039 -0.80273,0 -1.16015,0.5625 -0.35743,0.55664 -0.35743,1.86328 0,0.88477 0.14649,1.40039 0.15234,0.50977 0.46875,0.74414 0.3164,0.23438 0.88476,0.23438 0.49805,0 0.87305,-0.27539 0.38086,-0.28125 0.58594,-0.81445 0.20508,-0.53907 0.20508,-1.28907 z m 8.23242,-2.15039 q -0.65625,-0.11133 -1.24219,-0.11133 -0.94336,0 -1.52344,0.70899 -0.58007,0.70898 -0.58007,1.80469 v 2.97656 h -1.05469 v -4.10742 q 0,-0.44532 -0.082,-1.04883 -0.0762,-0.60352 -0.22266,-1.18359 h 1.00195 q 0.23438,0.80859 0.28125,1.46484 h 0.0293 q 0.29297,-0.65625 0.57422,-0.96094 0.28125,-0.31055 0.66797,-0.46289 0.38672,-0.1582 0.94336,-0.1582 0.60937,0 1.20703,0.0996 z m 2.96484,2.43164 q 0,1.06641 0.46875,1.66993 0.47461,0.60351 1.29492,0.60351 0.60352,0 1.05469,-0.25781 0.45703,-0.26367 0.60938,-0.71485 l 0.92578,0.26368 q -0.25781,0.72656 -0.94922,1.11328 -0.68555,0.38672 -1.64063,0.38672 -1.38281,0 -2.12695,-0.86133 -0.74414,-0.86133 -0.74414,-2.4668 0,-1.56445 0.72656,-2.40234 0.73242,-0.84375 2.10938,-0.84375 1.37695,0 2.08594,0.83789 0.70898,0.83789 0.70898,2.53125 v 0.14062 z m 1.74024,-2.73047 q -0.78516,0 -1.24219,0.51563 -0.45703,0.50977 -0.48633,1.40625 h 3.42188 q -0.16407,-1.92188 -1.69336,-1.92188 z m 5.46093,2.73047 q 0,1.06641 0.46875,1.66993 0.47461,0.60351 1.29493,0.60351 0.60351,0 1.05468,-0.25781 0.45703,-0.26367 0.60938,-0.71485 l 0.92578,0.26368 q -0.25781,0.72656 -0.94922,1.11328 -0.68555,0.38672 -1.64062,0.38672 -1.38282,0 -2.12696,-0.86133 -0.74414,-0.86133 -0.74414,-2.4668 0,-1.56445 0.72656,-2.40234 0.73243,-0.84375 2.10938,-0.84375 1.37695,0 2.08594,0.83789 0.70898,0.83789 0.70898,2.53125 v 0.14062 z m 1.74024,-2.73047 q -0.78516,0 -1.24219,0.51563 -0.45703,0.50977 -0.48633,1.40625 h 3.42188 q -0.16406,-1.92188 -1.69336,-1.92188 z m 4.6875,0.16993 v -0.83203 h 0.99609 l 0.33985,-1.65235 h 0.70312 v 1.65235 h 2.53125 v 0.83203 h -2.53125 v 3.82031 q 0,0.46289 0.24609,0.68555 0.25196,0.22265 0.82032,0.22265 0.78515,0 1.74023,-0.19922 v 0.80274 q -0.99023,0.26953 -1.96289,0.26953 -0.94922,0 -1.42383,-0.39844 -0.47461,-0.4043 -0.47461,-1.27148 v -3.93164 z m 11.4082,0.55664 h -0.83203 l -0.23437,-3.74414 h 1.3125 z m -2.63086,0 h -0.82617 l -0.24023,-3.74414 h 1.3125 z"
         id="path162" />
      <path
         style="fill:#d4d4d4"
         d="m 188.63672,234.01132 v -0.89649 l 5.02734,-2.15039 -5.02734,-2.14453 v -0.90234 l 5.83008,2.44921 v 1.20118 z m 8.36133,-3.0879 q 0,1.59961 0.49804,2.40235 0.50391,0.79687 1.53516,0.79687 0.5918,0 1.07227,-0.39843 0.48046,-0.4043 0.81445,-1.25391 l 0.93164,0.38086 q -0.87305,2.17969 -2.83008,2.17969 -1.54101,0 -2.37305,-1.06055 -0.82617,-1.06055 -0.82617,-3.04688 0,-4.0371 3.14063,-4.0371 1.98633,0 2.73047,1.96289 l -0.98438,0.38086 q -0.2168,-0.66211 -0.67969,-1.04297 -0.45703,-0.38672 -1.06054,-0.38672 -1.00196,0 -1.48828,0.75586 -0.48047,0.75586 -0.48047,2.36718 z m 10.2539,3.12891 1.64649,0.0293 v 0.83203 l -2.16797,-0.0234 q -0.66211,-0.11719 -0.9668,-0.52734 -0.1289,-0.17578 -0.14648,-0.96094 v -6.35156 h -1.69336 v -0.83203 h 2.74804 v 7.30664 q 0.006,0.26367 0.14649,0.39258 0.12305,0.11132 0.43359,0.13476 z m 0.0234,0.0293 z m -0.60352,-0.55664 z m 0.0937,1.38867 z m -1.14843,-0.83203 v -0.67969 z m 8.30859,0 h 2.22656 v 0.83203 h -5.7539 v -0.83203 h 2.47265 v -4.67578 h -1.86914 v -0.83203 h 2.92383 z m -1.17187,-6.73828 v -1.125 h 1.17187 v 1.125 z m 4.76953,4.39453 q 0,-1.58203 0.75586,-2.43164 0.75586,-0.84961 2.18554,-0.84961 1.06641,0 1.75782,0.51562 0.6914,0.50977 0.85546,1.37696 l -1.125,0.082 q -0.0937,-0.53321 -0.46875,-0.83789 -0.375,-0.31055 -1.0664,-0.31055 -0.92578,0 -1.35938,0.57422 -0.42773,0.57422 -0.42773,1.85742 0,1.30078 0.42773,1.9043 0.4336,0.59765 1.35352,0.59765 0.63281,0 1.04883,-0.31054 0.41601,-0.31055 0.51562,-0.94922 l 1.11328,0.0703 q -0.0762,0.5625 -0.42773,1.02539 -0.3457,0.45703 -0.91992,0.7207 -0.57422,0.25782 -1.28321,0.25782 -1.43554,0 -2.18554,-0.84375 -0.75,-0.84375 -0.75,-2.44922 z m 11.79492,3.17578 -2.14453,-2.92383 -0.77344,0.57422 v 2.34961 h -1.05469 v -8.69531 h 1.05469 v 5.43164 l 2.7832,-3.07617 h 1.23633 l -2.57226,2.7246 2.70703,3.61524 z"
         id="path163" />
      <path
         style="fill:#d4d4d4"
         d="m 231.84375,231.56796 v -1.20118 l 5.83008,-2.44921 v 0.90234 l -5.02735,2.14453 5.02735,2.15039 v 0.89649 z m 7.18945,3.46289 4.81055,-8.8125 h 1.04297 l -4.78711,8.8125 z"
         id="path164" />
      <path
         style="fill:#85e89d"
         d="m 251.95312,231.71444 q 0,1.66406 -0.59765,2.49023 -0.5918,0.82618 -1.69922,0.82618 -1.42969,0 -1.95703,-1.07813 h -0.0117 q 0,0.28125 -0.0234,0.58594 -0.0176,0.30469 -0.0293,0.375 h -1.01954 q 0.0352,-0.31641 0.0352,-1.30664 v -7.38867 h 1.05469 v 2.47851 q 0,0.38086 -0.0234,0.91992 h 0.0234 q 0.5332,-1.17187 1.95703,-1.17187 2.29101,0 2.29101,3.26953 z m -1.08984,0.0352 q 0,-1.3125 -0.36328,-1.89844 -0.35742,-0.5918 -1.125,-0.5918 -0.87305,0 -1.27148,0.64453 -0.39844,0.63868 -0.39844,1.93946 0,1.22461 0.38672,1.8164 0.38672,0.5918 1.27148,0.5918 0.79102,0 1.14258,-0.60938 0.35742,-0.61523 0.35742,-1.89257 z m 4.04297,-3.17578 v 4.01953 q 0,0.91406 0.28711,1.27148 0.28711,0.35156 1.02539,0.35156 0.75586,0 1.19531,-0.51562 0.43946,-0.51563 0.43946,-1.45313 v -3.67382 h 1.06054 v 4.98632 q 0,1.10743 0.0352,1.35352 h -0.9961 q -0.006,-0.0293 -0.0117,-0.1582 -0.006,-0.12891 -0.0176,-0.29297 -0.006,-0.16992 -0.0176,-0.63282 h -0.0176 q -0.36328,0.65625 -0.84375,0.93165 -0.47461,0.26953 -1.18359,0.26953 -1.04297,0 -1.5293,-0.51563 -0.48047,-0.52148 -0.48047,-1.7168 v -4.2246 z m 6.17578,0.83203 v -0.83203 h 0.99609 l 0.33985,-1.65235 h 0.70312 v 1.65235 h 2.53125 v 0.83203 h -2.53125 v 3.82031 q 0,0.46289 0.2461,0.68555 0.25195,0.22265 0.82031,0.22265 0.78516,0 1.74023,-0.19922 v 0.80274 q -0.99023,0.26953 -1.96289,0.26953 -0.94922,0 -1.42382,-0.39844 -0.47461,-0.4043 -0.47461,-1.27148 v -3.93164 z m 7.20117,0 v -0.83203 h 0.9961 l 0.33984,-1.65235 h 0.70313 v 1.65235 h 2.53125 v 0.83203 h -2.53125 v 3.82031 q 0,0.46289 0.24609,0.68555 0.25195,0.22265 0.82031,0.22265 0.78516,0 1.74024,-0.19922 v 0.80274 q -0.99024,0.26953 -1.96289,0.26953 -0.94922,0 -1.42383,-0.39844 -0.47461,-0.4043 -0.47461,-1.27148 v -3.93164 z m 12.51563,2.33203 q 0,1.59961 -0.73828,2.44922 -0.73243,0.84375 -2.1211,0.84375 -1.35937,0 -2.08593,-0.85547 -0.72071,-0.85547 -0.72071,-2.4375 0,-1.63477 0.73828,-2.45508 0.74414,-0.82617 2.10352,-0.82617 1.42969,0 2.12695,0.81445 0.69727,0.81445 0.69727,2.4668 z m -1.10742,0 q 0,-1.25977 -0.4043,-1.88086 -0.39844,-0.6211 -1.29492,-0.6211 -0.90821,0 -1.33008,0.63282 -0.42188,0.63281 -0.42188,1.86914 0,1.23047 0.42188,1.875 0.42187,0.63867 1.26562,0.63867 0.93164,0 1.34766,-0.62695 0.41602,-0.62696 0.41602,-1.88672 z m 6.96679,3.17578 v -4.07227 q 0,-0.79687 -0.31054,-1.18359 -0.30469,-0.38672 -0.97852,-0.38672 -0.72656,0 -1.19531,0.5332 -0.46289,0.52735 -0.46289,1.43555 v 3.67383 h -1.05469 v -4.98633 q 0,-1.10742 -0.0352,-1.35351 h 0.9961 q 0.006,0.0293 0.0117,0.1582 0.006,0.1289 0.0117,0.29883 0.0117,0.16406 0.0234,0.62695 h 0.0176 q 0.61523,-1.20117 2.02734,-1.20117 1.01368,0 1.51172,0.55078 0.49805,0.54492 0.49805,1.68164 v 4.22461 z"
         id="path165" />
      <path
         style="fill:#d4d4d4"
         d="m 289.45312,234.01132 v -0.89649 l 5.02735,-2.15039 -5.02735,-2.14453 v -0.90234 l 5.83008,2.44921 v 1.20118 z"
         id="path166" />
      <path
         style="fill:#d4d4d4"
         d="m 15.808594,249.56796 v -1.20118 l 5.830078,-2.44921 v 0.90234 l -5.027344,2.14453 5.027344,2.15039 v 0.89649 z m 7.189453,3.46289 4.810547,-8.8125 h 1.042968 l -4.787109,8.8125 z"
         id="path167" />
      <path
         style="fill:#85e89d"
         d="m 30.644531,247.40585 v -0.83203 h 0.996094 l 0.339844,-1.65235 h 0.703125 v 1.65235 h 2.53125 v 0.83203 h -2.53125 v 3.82031 q 0,0.46289 0.246093,0.68555 0.251954,0.22265 0.820313,0.22265 0.785156,0 1.740234,-0.19922 v 0.80274 q -0.990234,0.26953 -1.96289,0.26953 -0.949219,0 -1.423828,-0.39844 -0.47461,-0.4043 -0.47461,-1.27148 v -3.93164 z m 7.97461,2.56054 q 0,1.06641 0.46875,1.66993 0.474609,0.60351 1.294921,0.60351 0.603516,0 1.054688,-0.25781 0.457031,-0.26367 0.609375,-0.71485 l 0.925781,0.26368 q -0.257812,0.72656 -0.949219,1.11328 -0.685546,0.38672 -1.640625,0.38672 -1.382812,0 -2.126953,-0.86133 -0.74414,-0.86133 -0.74414,-2.4668 0,-1.56445 0.726562,-2.40234 0.732422,-0.84375 2.109375,-0.84375 1.376953,0 2.085938,0.83789 0.708984,0.83789 0.708984,2.53125 v 0.14062 z m 1.740234,-2.73047 q -0.785156,0 -1.242188,0.51563 -0.457031,0.50977 -0.486328,1.40625 h 3.421875 q -0.164062,-1.92188 -1.693359,-1.92188 z m 6.685547,5.67774 v -4.01953 q 0,-0.90235 -0.146485,-1.25977 -0.140625,-0.36328 -0.521484,-0.36328 -0.375,0 -0.609375,0.5625 -0.228516,0.5625 -0.228516,1.52344 v 3.55664 h -0.990234 v -4.98633 q 0,-1.10742 -0.03516,-1.35351 h 0.873047 l 0.03516,0.74414 v 0.28125 h 0.01172 q 0.199218,-0.59766 0.503906,-0.86719 0.304687,-0.27539 0.761719,-0.27539 0.515625,0 0.767578,0.28125 0.257812,0.28125 0.36914,0.86719 h 0.01172 q 0.234375,-0.6211 0.556641,-0.88477 0.328125,-0.26367 0.826172,-0.26367 0.691406,0 0.990234,0.5039 0.298828,0.50391 0.298828,1.72852 v 4.22461 h -0.984375 v -4.01953 q 0,-0.90235 -0.146484,-1.25977 -0.140625,-0.36328 -0.521485,-0.36328 -0.386718,0 -0.615234,0.49219 -0.222656,0.49219 -0.222656,1.47656 v 3.67383 z m 10.476562,-3.19922 q 0,3.31641 -2.296875,3.31641 -1.441406,0 -1.939453,-1.07813 h -0.0293 q 0.02344,0.0469 0.02344,0.97266 v 2.47851 H 52.21875 v -7.51757 q 0,-0.9961 -0.03516,-1.3125 h 1.02539 q 0.0059,0.0234 0.01758,0.17578 0.01172,0.14648 0.02344,0.43945 0.01758,0.28711 0.01758,0.42773 h 0.02344 q 0.292968,-0.61523 0.74414,-0.89062 0.457031,-0.28125 1.189453,-0.28125 1.160157,0 1.728516,0.80273 0.568359,0.79688 0.568359,2.4668 z m -1.089843,0 q 0,-1.32422 -0.357422,-1.88672 -0.357422,-0.56836 -1.125,-0.56836 -0.884766,0 -1.277344,0.64453 -0.392578,0.63868 -0.392578,1.93946 0,1.24804 0.392578,1.82812 0.392578,0.58008 1.265625,0.58008 0.779297,0 1.136719,-0.5918 0.357422,-0.59179 0.357422,-1.94531 z m 6.796875,2.33789 1.646484,0.0293 v 0.83203 l -2.167969,-0.0234 q -0.662109,-0.11719 -0.966797,-0.52734 -0.128906,-0.17578 -0.146484,-0.96094 v -6.35156 h -1.693359 v -0.83203 h 2.748046 v 7.30664 q 0.0059,0.26367 0.146485,0.39258 0.123047,0.11132 0.433594,0.13476 z m 0.02344,0.0293 z m -0.603516,-0.55664 z m 0.09375,1.38867 z m -1.148437,-0.83203 v -0.67969 z m 10.394531,0.18164 q 0.152344,0 0.345703,-0.041 v 0.65625 q -0.398437,0.0937 -0.814453,0.0937 -0.585937,0 -0.855469,-0.30468 -0.263671,-0.31055 -0.298828,-0.9668 h -0.03516 q -0.380859,0.70898 -0.902344,1.01953 -0.515625,0.31055 -1.277343,0.31055 -0.925782,0 -1.394532,-0.50391 -0.46875,-0.50391 -0.46875,-1.38281 0,-2.04492 2.660157,-2.07422 l 1.382812,-0.0234 v -0.3457 q 0,-0.76758 -0.310547,-1.10156 -0.310547,-0.33985 -0.990234,-0.33985 -0.691406,0 -0.996094,0.2461 -0.304687,0.24609 -0.363281,0.76171 l -1.101563,-0.0996 q 0.269532,-1.71094 2.478516,-1.71094 1.171875,0 1.757812,0.55078 0.591797,0.54492 0.591797,1.58203 v 2.73047 q 0,0.46875 0.123047,0.70898 0.123047,0.23438 0.46875,0.23438 z m -3.568359,-0.0352 q 0.5625,0 0.996094,-0.26953 0.433593,-0.26953 0.673828,-0.7207 0.240234,-0.45117 0.240234,-0.93164 v -0.52149 l -1.113281,0.0234 q -0.691406,0.0117 -1.054688,0.15234 -0.363281,0.14063 -0.568359,0.4336 -0.199219,0.28711 -0.199219,0.76758 0,0.48046 0.257813,0.77343 0.263672,0.29297 0.767578,0.29297 z m 5.43164,-4.82226 v -0.83203 h 0.996094 l 0.339844,-1.65235 h 0.703125 v 1.65235 h 2.53125 v 0.83203 h -2.53125 v 3.82031 q 0,0.46289 0.246094,0.68555 0.251953,0.22265 0.820312,0.22265 0.785156,0 1.740235,-0.19922 v 0.80274 q -0.990235,0.26953 -1.962891,0.26953 -0.949219,0 -1.423828,-0.39844 -0.47461,-0.4043 -0.47461,-1.27148 v -3.93164 z m 7.97461,2.56054 q 0,1.06641 0.46875,1.66993 0.474609,0.60351 1.294922,0.60351 0.603515,0 1.054687,-0.25781 0.457031,-0.26367 0.609375,-0.71485 l 0.925781,0.26368 q -0.257812,0.72656 -0.949218,1.11328 -0.685547,0.38672 -1.640625,0.38672 -1.382813,0 -2.126953,-0.86133 -0.744141,-0.86133 -0.744141,-2.4668 0,-1.56445 0.726562,-2.40234 0.732422,-0.84375 2.109375,-0.84375 1.376954,0 2.085938,0.83789 0.708984,0.83789 0.708984,2.53125 v 0.14062 z m 1.740234,-2.73047 q -0.785156,0 -1.242187,0.51563 -0.457032,0.50977 -0.486328,1.40625 h 3.421875 q -0.164063,-1.92188 -1.69336,-1.92188 z"
         id="path168" />
      <path
         style="fill:#d4d4d4"
         d="m 87.820312,252.01132 v -0.89649 l 5.027344,-2.15039 -5.027344,-2.14453 v -0.90234 l 5.830079,2.44921 v 1.20118 z"
         id="path169" />
      <path
         style="fill:#d4d4d4"
         d="m 15.808594,285.56796 v -1.20118 l 5.830078,-2.44921 v 0.90234 l -5.027344,2.14453 5.027344,2.15039 v 0.89649 z"
         id="path170" />
      <path
         style="fill:#85e89d"
         d="m 28.541016,287.10311 q 0,0.90235 -0.685547,1.41797 -0.679688,0.50977 -1.886719,0.50977 -1.207031,0 -1.839844,-0.375 -0.626953,-0.38086 -0.820312,-1.19532 l 0.93164,-0.18164 q 0.111328,0.50391 0.47461,0.73828 0.36914,0.22852 1.253906,0.22852 1.582031,0 1.582031,-1.00195 0,-0.375 -0.287109,-0.60352 -0.28711,-0.23437 -0.878906,-0.38086 -1.546875,-0.38086 -1.962891,-0.59765 -0.416016,-0.2168 -0.638672,-0.53907 -0.222656,-0.32812 -0.222656,-0.81445 0,-0.86133 0.621094,-1.34766 0.621093,-0.48632 1.798828,-0.48632 1.03125,0 1.646484,0.39257 0.615234,0.38672 0.767578,1.13086 l -0.949219,0.11719 q -0.06445,-0.42187 -0.416015,-0.63867 -0.351563,-0.2168 -1.048828,-0.2168 -1.435547,0 -1.435547,0.88477 0,0.35156 0.240234,0.5625 0.246094,0.21094 0.785156,0.33984 l 0.697266,0.18164 q 0.955078,0.23438 1.371094,0.46289 0.421875,0.22852 0.662109,0.57422 0.240235,0.33985 0.240235,0.83789 z m 1.751953,-1.36523 q 0,-1.58203 0.755859,-2.43164 0.755859,-0.84961 2.185547,-0.84961 1.066406,0 1.757812,0.51562 0.691407,0.50977 0.855469,1.37696 l -1.125,0.082 q -0.09375,-0.53321 -0.46875,-0.83789 -0.375,-0.31055 -1.066406,-0.31055 -0.925781,0 -1.359375,0.57422 -0.427734,0.57422 -0.427734,1.85742 0,1.30078 0.427734,1.9043 0.433594,0.59765 1.353516,0.59765 0.632812,0 1.048828,-0.31054 0.416015,-0.31055 0.515625,-0.94922 l 1.113281,0.0703 q -0.07617,0.5625 -0.427734,1.02539 -0.345704,0.45703 -0.919922,0.7207 -0.574219,0.25782 -1.283203,0.25782 -1.435547,0 -2.185547,-0.84375 -0.75,-0.84375 -0.75,-2.44922 z m 12.5625,-2.20313 q -0.65625,-0.11133 -1.242188,-0.11133 -0.943359,0 -1.523437,0.70899 -0.580078,0.70898 -0.580078,1.80469 v 2.97656 h -1.054688 v -4.10742 q 0,-0.44532 -0.08203,-1.04883 -0.07617,-0.60352 -0.222656,-1.18359 h 1.001953 q 0.234375,0.80859 0.28125,1.46484 h 0.0293 q 0.292968,-0.65625 0.574218,-0.96094 0.28125,-0.31055 0.667969,-0.46289 0.386719,-0.1582 0.943359,-0.1582 0.609375,0 1.207032,0.0996 z m 5.443359,4.54688 h 2.226563 v 0.83203 h -5.753907 v -0.83203 h 2.472657 v -4.67578 H 45.375 v -0.83203 h 2.923828 z m -1.171875,-6.73828 v -1.125 h 1.171875 v 1.125 z m 10.394531,4.37109 q 0,3.31641 -2.296875,3.31641 -1.441406,0 -1.939453,-1.07813 h -0.0293 q 0.02344,0.0469 0.02344,0.97266 v 2.47851 H 52.21875 v -7.51757 q 0,-0.9961 -0.03516,-1.3125 h 1.02539 q 0.0059,0.0234 0.01758,0.17578 0.01172,0.14648 0.02344,0.43945 0.01758,0.28711 0.01758,0.42773 h 0.02344 q 0.292968,-0.61523 0.74414,-0.89062 0.457031,-0.28125 1.189453,-0.28125 1.160157,0 1.728516,0.80273 0.568359,0.79688 0.568359,2.4668 z m -1.089843,0 q 0,-1.32422 -0.357422,-1.88672 -0.357422,-0.56836 -1.125,-0.56836 -0.884766,0 -1.277344,0.64453 -0.392578,0.63868 -0.392578,1.93946 0,1.24804 0.392578,1.82812 0.392578,0.58008 1.265625,0.58008 0.779297,0 1.136719,-0.5918 0.357422,-0.59179 0.357422,-1.94531 z m 3.017578,-2.30859 v -0.83203 h 0.996093 l 0.339844,-1.65235 h 0.703125 v 1.65235 h 2.53125 v 0.83203 h -2.53125 v 3.82031 q 0,0.46289 0.246094,0.68555 0.251953,0.22265 0.820312,0.22265 0.785157,0 1.740235,-0.19922 v 0.80274 q -0.990235,0.26953 -1.962891,0.26953 -0.949219,0 -1.423828,-0.39844 -0.474609,-0.4043 -0.474609,-1.27148 v -3.93164 z"
         id="path171" />
      <path
         style="fill:#d4d4d4"
         d="m 66.216797,288.01132 v -0.89649 l 5.027344,-2.15039 -5.027344,-2.14453 v -0.90234 l 5.830078,2.44921 v 1.20118 z"
         id="path172" />
      <path
         style="fill:#f97583"
         d="m 31.417969,303.96639 q 0,1.06641 0.46875,1.66993 0.474609,0.60351 1.294922,0.60351 0.603515,0 1.054687,-0.25781 0.457031,-0.26367 0.609375,-0.71485 l 0.925781,0.26368 q -0.257812,0.72656 -0.949218,1.11328 -0.685547,0.38672 -1.640625,0.38672 -1.382813,0 -2.126954,-0.86133 -0.74414,-0.86133 -0.74414,-2.4668 0,-1.56445 0.726562,-2.40234 0.732422,-0.84375 2.109375,-0.84375 1.376953,0 2.085938,0.83789 0.708984,0.83789 0.708984,2.53125 v 0.14062 z m 1.740234,-2.73047 q -0.785156,0 -1.242187,0.51563 -0.457032,0.50977 -0.486329,1.40625 h 3.421875 q -0.164062,-1.92188 -1.693359,-1.92188 z m 9.035156,5.67774 -1.880859,-2.60156 -1.892578,2.60156 h -1.136719 l 2.431641,-3.25781 -2.326172,-3.08203 h 1.166015 l 1.757813,2.46679 1.746094,-2.46679 h 1.177734 l -2.326172,3.07031 2.460938,3.26953 z m 8.126953,-3.19922 q 0,3.31641 -2.296875,3.31641 -1.441406,0 -1.939453,-1.07813 h -0.0293 q 0.02344,0.0469 0.02344,0.97266 v 2.47851 h -1.060547 v -7.51757 q 0,-0.9961 -0.03516,-1.3125 h 1.02539 q 0.0059,0.0234 0.01758,0.17578 0.01172,0.14648 0.02344,0.43945 0.01758,0.28711 0.01758,0.42773 h 0.02344 q 0.292968,-0.61523 0.74414,-0.89062 0.457032,-0.28125 1.189453,-0.28125 1.160157,0 1.728516,0.80273 0.568359,0.79688 0.568359,2.4668 z m -1.089843,0 q 0,-1.32422 -0.357422,-1.88672 -0.357422,-0.56836 -1.125,-0.56836 -0.884766,0 -1.277344,0.64453 -0.392578,0.63868 -0.392578,1.93946 0,1.24804 0.392578,1.82812 0.392578,0.58008 1.265625,0.58008 0.779297,0 1.136719,-0.5918 0.357422,-0.59179 0.357422,-1.94531 z m 8.332031,0.0234 q 0,1.59961 -0.738281,2.44922 -0.732422,0.84375 -2.121094,0.84375 -1.359375,0 -2.085938,-0.85547 -0.720703,-0.85547 -0.720703,-2.4375 0,-1.63477 0.738282,-2.45508 0.74414,-0.82617 2.103515,-0.82617 1.429688,0 2.126953,0.81445 0.697266,0.81445 0.697266,2.4668 z m -1.107422,0 q 0,-1.25977 -0.404297,-1.88086 -0.398437,-0.6211 -1.294922,-0.6211 -0.908203,0 -1.330078,0.63282 -0.421875,0.63281 -0.421875,1.86914 0,1.23047 0.421875,1.875 0.421875,0.63867 1.265625,0.63867 0.931641,0 1.347656,-0.62695 0.416016,-0.62696 0.416016,-1.88672 z m 8.003906,-2.20313 q -0.65625,-0.11133 -1.242187,-0.11133 -0.94336,0 -1.523438,0.70899 -0.580078,0.70898 -0.580078,1.80469 v 2.97656 h -1.054687 v -4.10742 q 0,-0.44532 -0.08203,-1.04883 -0.07617,-0.60352 -0.222656,-1.18359 h 1.001953 q 0.234375,0.80859 0.28125,1.46484 h 0.0293 q 0.292969,-0.65625 0.574219,-0.96094 0.28125,-0.31055 0.667969,-0.46289 0.386718,-0.1582 0.943359,-0.1582 0.609375,0 1.207031,0.0996 z m 2.191407,-0.1289 v -0.83203 h 0.996093 l 0.339844,-1.65235 h 0.703125 v 1.65235 h 2.53125 v 0.83203 h -2.53125 v 3.82031 q 0,0.46289 0.246094,0.68555 0.251953,0.22265 0.820312,0.22265 0.785157,0 1.740235,-0.19922 v 0.80274 q -0.990235,0.26953 -1.962891,0.26953 -0.949219,0 -1.423828,-0.39844 -0.474609,-0.4043 -0.474609,-1.27148 v -3.93164 z m 18.339843,4.48828 q -0.287109,0.61523 -0.761718,0.89648 -0.47461,0.27539 -1.183594,0.27539 -1.183594,0 -1.740235,-0.81445 -0.55664,-0.81445 -0.55664,-2.45508 0,-3.3164 2.296875,-3.3164 0.708984,0 1.183594,0.25195 0.480468,0.25195 0.767578,0.82617 h 0.01172 l -0.01172,-0.88477 v -2.45507 h 1.054687 v 7.38867 q 0,0.99023 0.03516,1.30664 h -1.007812 q -0.02344,-0.0879 -0.04102,-0.42774 -0.01758,-0.33984 -0.01758,-0.59179 z m -3.152343,-2.13281 q 0,1.30078 0.345703,1.89843 0.351562,0.5918 1.136718,0.5918 0.855469,0 1.265625,-0.61523 0.410157,-0.6211 0.410157,-1.96875 0,-1.25977 -0.398438,-1.83399 -0.392578,-0.57422 -1.265625,-0.57422 -0.791015,0 -1.142578,0.60352 -0.351562,0.60351 -0.351562,1.89844 z m 7.189453,0.20507 q 0,1.06641 0.46875,1.66993 0.474609,0.60351 1.294922,0.60351 0.603515,0 1.054687,-0.25781 0.457031,-0.26367 0.609375,-0.71485 l 0.925781,0.26368 q -0.257812,0.72656 -0.949218,1.11328 -0.685547,0.38672 -1.640625,0.38672 -1.382813,0 -2.126954,-0.86133 -0.74414,-0.86133 -0.74414,-2.4668 0,-1.56445 0.726562,-2.40234 0.732422,-0.84375 2.109375,-0.84375 1.376953,0 2.085938,0.83789 0.708984,0.83789 0.708984,2.53125 v 0.14062 z m 1.740234,-2.73047 q -0.785156,0 -1.242187,0.51563 -0.457032,0.50977 -0.486329,1.40625 h 3.421875 q -0.164062,-1.92188 -1.693359,-1.92188 z m 6.972656,0.16993 v 5.50781 h -1.054687 v -5.50781 h -1.535156 v -0.83203 h 1.535156 v -0.14649 q 0,-1.20117 0.5625,-1.70508 0.568359,-0.5039 1.886719,-0.5039 0.421875,0 0.908204,0.041 0.49219,0.0352 0.73828,0.082 v 0.84961 q -0.17578,-0.0293 -0.71484,-0.0644 -0.533207,-0.0352 -0.808598,-0.0352 -0.609375,0 -0.919921,0.13477 -0.310547,0.13476 -0.457032,0.43945 -0.140625,0.30469 -0.140625,0.84961 v 0.0586 h 2.876956 v 0.83203 z m 10.253906,4.85742 q 0.15234,0 0.3457,-0.041 v 0.65625 q -0.39843,0.0937 -0.81445,0.0937 -0.58594,0 -0.85547,-0.30468 -0.26367,-0.31055 -0.29883,-0.9668 h -0.0352 q -0.38086,0.70898 -0.90235,1.01953 -0.51562,0.31055 -1.27734,0.31055 -0.92578,0 -1.39453,-0.50391 -0.46875,-0.50391 -0.46875,-1.38281 0,-2.04492 2.66016,-2.07422 l 1.38281,-0.0234 v -0.3457 q 0,-0.76758 -0.31055,-1.10156 -0.31055,-0.33985 -0.99023,-0.33985 -0.69141,0 -0.9961,0.2461 -0.30468,0.24609 -0.36328,0.76171 l -1.10156,-0.0996 q 0.26953,-1.71094 2.47851,-1.71094 1.17188,0 1.75782,0.55078 0.59179,0.54492 0.59179,1.58203 v 2.73047 q 0,0.46875 0.12305,0.70898 0.12305,0.23438 0.46875,0.23438 z m -3.56836,-0.0352 q 0.5625,0 0.9961,-0.26953 0.43359,-0.26953 0.67382,-0.7207 0.24024,-0.45117 0.24024,-0.93164 v -0.52149 l -1.11328,0.0234 q -0.69141,0.0117 -1.05469,0.15234 -0.36328,0.14063 -0.56836,0.4336 -0.19922,0.28711 -0.19922,0.76758 0,0.48046 0.25781,0.77343 0.26368,0.29297 0.76758,0.29297 z m 6.45703,-5.65429 v 4.01953 q 0,0.91406 0.28711,1.27148 0.28711,0.35156 1.02539,0.35156 0.75586,0 1.19532,-0.51562 0.43945,-0.51563 0.43945,-1.45313 v -3.67382 h 1.06055 v 4.98632 q 0,1.10743 0.0352,1.35352 h -0.99609 q -0.006,-0.0293 -0.0117,-0.1582 -0.006,-0.12891 -0.0176,-0.29297 -0.006,-0.16992 -0.0176,-0.63282 h -0.0176 q -0.36328,0.65625 -0.84375,0.93165 -0.4746,0.26953 -1.18359,0.26953 -1.04297,0 -1.5293,-0.51563 -0.48046,-0.52148 -0.48046,-1.7168 v -4.2246 z m 9.95508,5.47851 1.64649,0.0293 v 0.83203 l -2.16797,-0.0234 q -0.66211,-0.11719 -0.9668,-0.52734 -0.12891,-0.17578 -0.14648,-0.96094 v -6.35156 h -1.69336 v -0.83203 h 2.74804 v 7.30664 q 0.006,0.26367 0.14649,0.39258 0.12304,0.11132 0.43359,0.13476 z m 0.0234,0.0293 z m -0.60352,-0.55664 z m 0.0937,1.38867 z m -1.14843,-0.83203 v -0.67969 z m 5.05664,-4.67578 v -0.83203 h 0.99609 l 0.33984,-1.65235 h 0.70313 v 1.65235 h 2.53125 v 0.83203 h -2.53125 v 3.82031 q 0,0.46289 0.24609,0.68555 0.25196,0.22265 0.82031,0.22265 0.78516,0 1.74024,-0.19922 v 0.80274 q -0.99024,0.26953 -1.96289,0.26953 -0.94922,0 -1.42383,-0.39844 -0.47461,-0.4043 -0.47461,-1.27148 v -3.93164 z m 14.05078,2.33203 q 0,-1.58203 0.75586,-2.43164 0.75586,-0.84961 2.18554,-0.84961 1.06641,0 1.75782,0.51562 0.6914,0.50977 0.85546,1.37696 l -1.125,0.082 q -0.0937,-0.53321 -0.46875,-0.83789 -0.375,-0.31055 -1.0664,-0.31055 -0.92578,0 -1.35938,0.57422 -0.42773,0.57422 -0.42773,1.85742 0,1.30078 0.42773,1.9043 0.4336,0.59765 1.35352,0.59765 0.63281,0 1.04883,-0.31054 0.41601,-0.31055 0.51562,-0.94922 l 1.11328,0.0703 q -0.0762,0.5625 -0.42773,1.02539 -0.3457,0.45703 -0.91992,0.7207 -0.57422,0.25782 -1.28321,0.25782 -1.43554,0 -2.18554,-0.84375 -0.75,-0.84375 -0.75,-2.44922 z m 11.33203,2.31445 1.64648,0.0293 v 0.83203 l -2.16797,-0.0234 q -0.66211,-0.11719 -0.96679,-0.52734 -0.12891,-0.17578 -0.14649,-0.96094 v -6.35156 h -1.69336 v -0.83203 h 2.74805 v 7.30664 q 0.006,0.26367 0.14648,0.39258 0.12305,0.11132 0.4336,0.13476 z m 0.0234,0.0293 z m -0.60352,-0.55664 z m 0.0937,1.38867 z m -1.14844,-0.83203 v -0.67969 z m 10.39453,0.18164 q 0.15235,0 0.34571,-0.041 v 0.65625 q -0.39844,0.0937 -0.81446,0.0937 -0.58593,0 -0.85547,-0.30468 -0.26367,-0.31055 -0.29882,-0.9668 h -0.0352 q -0.38086,0.70898 -0.90234,1.01953 -0.51563,0.31055 -1.27735,0.31055 -0.92578,0 -1.39453,-0.50391 -0.46875,-0.50391 -0.46875,-1.38281 0,-2.04492 2.66016,-2.07422 l 1.38281,-0.0234 v -0.3457 q 0,-0.76758 -0.31055,-1.10156 -0.31054,-0.33985 -0.99023,-0.33985 -0.69141,0 -0.99609,0.2461 -0.30469,0.24609 -0.36329,0.76171 l -1.10156,-0.0996 q 0.26953,-1.71094 2.47852,-1.71094 1.17187,0 1.75781,0.55078 0.5918,0.54492 0.5918,1.58203 v 2.73047 q 0,0.46875 0.12304,0.70898 0.12305,0.23438 0.46875,0.23438 z m -3.56836,-0.0352 q 0.5625,0 0.9961,-0.26953 0.43359,-0.26953 0.67383,-0.7207 0.24023,-0.45117 0.24023,-0.93164 v -0.52149 l -1.11328,0.0234 q -0.69141,0.0117 -1.05469,0.15234 -0.36328,0.14063 -0.56836,0.4336 -0.19922,0.28711 -0.19922,0.76758 0,0.48046 0.25782,0.77343 0.26367,0.29297 0.76757,0.29297 z m 10.5293,-1.125 q 0,0.90235 -0.68555,1.41797 -0.67968,0.50977 -1.88671,0.50977 -1.20704,0 -1.83985,-0.375 -0.62695,-0.38086 -0.82031,-1.19532 l 0.93164,-0.18164 q 0.11133,0.50391 0.47461,0.73828 0.36914,0.22852 1.25391,0.22852 1.58203,0 1.58203,-1.00195 0,-0.375 -0.28711,-0.60352 -0.28711,-0.23437 -0.87891,-0.38086 -1.54687,-0.38086 -1.96289,-0.59765 -0.41602,-0.2168 -0.63867,-0.53907 -0.22266,-0.32812 -0.22266,-0.81445 0,-0.86133 0.6211,-1.34766 0.62109,-0.48632 1.79882,-0.48632 1.03125,0 1.64649,0.39257 0.61523,0.38672 0.76758,1.13086 l -0.94922,0.11719 q -0.0645,-0.42187 -0.41602,-0.63867 -0.35156,-0.2168 -1.04883,-0.2168 -1.43554,0 -1.43554,0.88477 0,0.35156 0.24023,0.5625 0.2461,0.21094 0.78516,0.33984 l 0.69726,0.18164 q 0.95508,0.23438 1.3711,0.46289 0.42187,0.22852 0.66211,0.57422 0.24023,0.33985 0.24023,0.83789 z m 7.20117,0 q 0,0.90235 -0.68554,1.41797 -0.67969,0.50977 -1.88672,0.50977 -1.20703,0 -1.83985,-0.375 -0.62695,-0.38086 -0.82031,-1.19532 l 0.93164,-0.18164 q 0.11133,0.50391 0.47461,0.73828 0.36914,0.22852 1.25391,0.22852 1.58203,0 1.58203,-1.00195 0,-0.375 -0.28711,-0.60352 -0.28711,-0.23437 -0.87891,-0.38086 -1.54687,-0.38086 -1.96289,-0.59765 -0.41601,-0.2168 -0.63867,-0.53907 -0.22266,-0.32812 -0.22266,-0.81445 0,-0.86133 0.6211,-1.34766 0.62109,-0.48632 1.79883,-0.48632 1.03125,0 1.64648,0.39257 0.61523,0.38672 0.76758,1.13086 l -0.94922,0.11719 q -0.0644,-0.42187 -0.41602,-0.63867 -0.35156,-0.2168 -1.04882,-0.2168 -1.43555,0 -1.43555,0.88477 0,0.35156 0.24023,0.5625 0.2461,0.21094 0.78516,0.33984 l 0.69727,0.18164 q 0.95507,0.23438 1.37109,0.46289 0.42187,0.22852 0.66211,0.57422 0.24023,0.33985 0.24023,0.83789 z"
         id="path173" />
      <path
         style="fill:#d4d4d4"
         d="m 185.41992,309.40389 q -0.76172,0 -1.24219,-0.49804 -0.48046,-0.49219 -0.48046,-1.27735 v -2.05664 q 0,-0.62695 -0.42774,-0.97851 -0.42773,-0.35157 -1.18359,-0.38086 v -0.80274 q 0.76172,-0.0293 1.18359,-0.38672 0.42774,-0.35742 0.42774,-0.96679 v -2.0625 q 0,-0.80274 0.4746,-1.28907 0.47461,-0.48632 1.24805,-0.48632 h 1.55274 v 0.81445 h -1.24805 q -0.5332,0 -0.76758,0.25781 -0.23437,0.25781 -0.23437,0.88477 v 2.02734 q 0,0.57422 -0.375,1.01367 -0.375,0.4336 -0.97852,0.58008 v 0.0117 q 0.59766,0.14063 0.97266,0.57422 0.38086,0.42773 0.38086,1.03125 v 2.0332 q 0,0.6211 0.23437,0.87891 0.23438,0.26367 0.76758,0.26367 h 1.24805 v 0.81445 z"
         id="path174" />
      <path
         style="fill:#b392f0"
         d="m 47.537109,327.39803 q -0.984375,0 -1.582031,-0.40429 -0.597656,-0.4043 -0.761719,-1.16016 l 1.078125,-0.14648 q 0.09961,0.43945 0.427735,0.67382 0.333984,0.24024 0.873047,0.24024 1.453125,0 1.453125,-1.8457 v -1.13672 h -0.01172 q -0.28711,0.60351 -0.796875,0.91406 -0.509766,0.31055 -1.212891,0.31055 -1.160156,0 -1.699219,-0.75586 -0.533203,-0.76172 -0.533203,-2.39063 0,-1.6582 0.574219,-2.4375 0.574219,-0.78515 1.769531,-0.78515 0.66211,0 1.148438,0.31054 0.492187,0.30469 0.755859,0.87305 h 0.01758 q 0,-0.17578 0.02344,-0.5918 0.02344,-0.42187 0.04687,-0.49218 h 1.001953 q -0.03516,0.3164 -0.03516,1.3125 v 4.83984 q 0,1.33008 -0.621094,1.99805 -0.621094,0.67382 -1.916016,0.67382 z m 1.488282,-5.71289 q 0,-1.13086 -0.439454,-1.77539 -0.439453,-0.65039 -1.207031,-0.65039 -0.802734,0 -1.160156,0.5625 -0.357422,0.55664 -0.357422,1.86328 0,0.88477 0.146484,1.40039 0.152344,0.50977 0.46875,0.74414 0.316407,0.23438 0.884766,0.23438 0.498047,0 0.873047,-0.27539 0.380859,-0.28125 0.585937,-0.81445 0.205079,-0.53907 0.205079,-1.28907 z m 8.232421,-2.15039 q -0.65625,-0.11133 -1.242187,-0.11133 -0.943359,0 -1.523438,0.70899 -0.580078,0.70898 -0.580078,1.80469 v 2.97656 h -1.054687 v -4.10742 q 0,-0.44532 -0.08203,-1.04883 -0.07617,-0.60352 -0.222657,-1.18359 h 1.001953 q 0.234375,0.80859 0.28125,1.46484 h 0.0293 q 0.292969,-0.65625 0.574219,-0.96094 0.28125,-0.31055 0.667969,-0.46289 0.386719,-0.1582 0.943359,-0.1582 0.609375,0 1.207031,0.0996 z m 2.964844,2.43164 q 0,1.06641 0.46875,1.66993 0.47461,0.60351 1.294922,0.60351 0.603516,0 1.054688,-0.25781 0.457031,-0.26367 0.609375,-0.71485 l 0.925781,0.26368 q -0.257813,0.72656 -0.949219,1.11328 -0.685547,0.38672 -1.640625,0.38672 -1.382812,0 -2.126953,-0.86133 -0.744141,-0.86133 -0.744141,-2.4668 0,-1.56445 0.726563,-2.40234 0.732422,-0.84375 2.109375,-0.84375 1.376953,0 2.085937,0.83789 0.708985,0.83789 0.708985,2.53125 v 0.14062 z m 1.740235,-2.73047 q -0.785157,0 -1.242188,0.51563 -0.457031,0.50977 -0.486328,1.40625 h 3.421875 q -0.164063,-1.92188 -1.693359,-1.92188 z m 5.460937,2.73047 q 0,1.06641 0.46875,1.66993 0.474609,0.60351 1.294922,0.60351 0.603516,0 1.054687,-0.25781 0.457032,-0.26367 0.609375,-0.71485 l 0.925782,0.26368 q -0.257813,0.72656 -0.949219,1.11328 -0.685547,0.38672 -1.640625,0.38672 -1.382813,0 -2.126953,-0.86133 -0.744141,-0.86133 -0.744141,-2.4668 0,-1.56445 0.726563,-2.40234 0.732422,-0.84375 2.109375,-0.84375 1.376953,0 2.085937,0.83789 0.708985,0.83789 0.708985,2.53125 v 0.14062 z m 1.740234,-2.73047 q -0.785156,0 -1.242187,0.51563 -0.457031,0.50977 -0.486328,1.40625 h 3.421875 q -0.164063,-1.92188 -1.69336,-1.92188 z m 4.6875,0.16993 v -0.83203 h 0.996094 l 0.339844,-1.65235 h 0.703125 v 1.65235 h 2.53125 v 0.83203 h -2.53125 v 3.82031 q 0,0.46289 0.246094,0.68555 0.251953,0.22265 0.820312,0.22265 0.785156,0 1.740235,-0.19922 v 0.80274 q -0.990235,0.26953 -1.962891,0.26953 -0.949219,0 -1.423828,-0.39844 -0.47461,-0.4043 -0.47461,-1.27148 v -3.93164 z"
         id="path175" />
      <path
         style="fill:#d4d4d4"
         d="m 83.039062,321.80819 q 0,1.61133 0.498047,2.91211 0.498047,1.30078 1.623047,2.68359 h -1.113281 q -1.125,-1.38281 -1.617188,-2.67773 -0.486328,-1.30078 -0.486328,-2.92969 0,-1.59961 0.480469,-2.88281 0.480469,-1.28906 1.623047,-2.69531 h 1.113281 q -1.125,1.38281 -1.623047,2.68945 -0.498047,1.30078 -0.498047,2.90039 z m 9.28711,-0.0117 q 0,1.64063 -0.486328,2.93555 -0.480469,1.28906 -1.605469,2.67187 h -1.125 q 1.148437,-1.41211 1.640625,-2.71289 0.492187,-1.30664 0.492187,-2.88281 0,-1.57031 -0.492187,-2.87109 -0.492188,-1.30664 -1.640625,-2.71875 h 1.125 q 1.142578,1.40625 1.617187,2.68359 0.47461,1.27734 0.47461,2.89453 z m 13.880858,5.60742 q -0.76172,0 -1.24219,-0.49804 -0.48046,-0.49219 -0.48046,-1.27735 v -2.05664 q 0,-0.62695 -0.42774,-0.97851 -0.42773,-0.35157 -1.18359,-0.38086 v -0.80274 q 0.76172,-0.0293 1.18359,-0.38672 0.42774,-0.35742 0.42774,-0.96679 v -2.0625 q 0,-0.80274 0.4746,-1.28907 0.47461,-0.48632 1.24805,-0.48632 h 1.55274 v 0.81445 h -1.24805 q -0.5332,0 -0.76758,0.25781 -0.23437,0.25781 -0.23437,0.88477 v 2.02734 q 0,0.57422 -0.375,1.01367 -0.375,0.4336 -0.97852,0.58008 v 0.0117 q 0.59766,0.14063 0.97266,0.57422 0.38086,0.42773 0.38086,1.03125 v 2.0332 q 0,0.6211 0.23437,0.87891 0.23438,0.26367 0.76758,0.26367 h 1.24805 v 0.81445 z"
         id="path176" />
      <path
         style="fill:#b392f0"
         d="m 64.787109,342.26327 q 0.152344,0 0.345703,-0.041 v 0.65625 q -0.398437,0.0937 -0.814453,0.0937 -0.585937,0 -0.855468,-0.30468 -0.263672,-0.31055 -0.298829,-0.9668 h -0.03516 q -0.380859,0.70898 -0.902344,1.01953 -0.515625,0.31055 -1.277343,0.31055 -0.925782,0 -1.394532,-0.50391 -0.46875,-0.50391 -0.46875,-1.38281 0,-2.04492 2.660157,-2.07422 l 1.382812,-0.0234 v -0.3457 q 0,-0.76758 -0.310547,-1.10156 -0.310547,-0.33985 -0.990234,-0.33985 -0.691406,0 -0.996094,0.2461 -0.304687,0.24609 -0.363281,0.76171 l -1.101563,-0.0996 q 0.269532,-1.71094 2.478516,-1.71094 1.171875,0 1.757813,0.55078 0.591796,0.54492 0.591796,1.58203 v 2.73047 q 0,0.46875 0.123047,0.70898 0.123047,0.23438 0.46875,0.23438 z m -3.568359,-0.0352 q 0.5625,0 0.996094,-0.26953 0.433593,-0.26953 0.673828,-0.7207 0.240234,-0.45117 0.240234,-0.93164 v -0.52149 l -1.113281,0.0234 q -0.691406,0.0117 -1.054688,0.15234 -0.363281,0.14063 -0.568359,0.4336 -0.199219,0.28711 -0.199219,0.76758 0,0.48046 0.257813,0.77343 0.263672,0.29297 0.767578,0.29297 z m 9.210937,-0.17578 1.646485,0.0293 v 0.83203 l -2.167969,-0.0234 q -0.662109,-0.11719 -0.966797,-0.52734 -0.128906,-0.17578 -0.146484,-0.96094 v -6.35156 h -1.69336 v -0.83203 h 2.748047 v 7.30664 q 0.0059,0.26367 0.146485,0.39258 0.123047,0.11132 0.433593,0.13476 z m 0.02344,0.0293 z m -0.603516,-0.55664 z m 0.09375,1.38867 z m -1.148437,-0.83203 v -0.67969 z m 5.830076,-2.1152 q 0,1.06641 0.46875,1.66993 0.474609,0.60351 1.294922,0.60351 0.603515,0 1.054687,-0.25781 0.457032,-0.26367 0.609375,-0.71485 l 0.925782,0.26368 q -0.257813,0.72656 -0.949219,1.11328 -0.685547,0.38672 -1.640625,0.38672 -1.382813,0 -2.126953,-0.86133 -0.744141,-0.86133 -0.744141,-2.4668 0,-1.56445 0.726563,-2.40234 0.732421,-0.84375 2.109375,-0.84375 1.376953,0 2.085937,0.83789 0.708984,0.83789 0.708984,2.53125 v 0.14062 z m 1.740234,-2.73047 q -0.785156,0 -1.242187,0.51563 -0.457031,0.50977 -0.486328,1.40625 h 3.421875 q -0.164063,-1.92188 -1.69336,-1.92188 z m 9.697266,0.29883 q -0.65625,-0.11133 -1.242188,-0.11133 -0.943359,0 -1.523437,0.70899 -0.580078,0.70898 -0.580078,1.80469 v 2.97656 h -1.054688 v -4.10742 q 0,-0.44532 -0.08203,-1.04883 -0.07617,-0.60352 -0.222656,-1.18359 h 1.001953 q 0.234375,0.80859 0.28125,1.46484 h 0.0293 q 0.292969,-0.65625 0.574219,-0.96094 0.28125,-0.31055 0.667968,-0.46289 0.386719,-0.1582 0.94336,-0.1582 0.609375,0 1.207031,0.0996 z m 2.191406,-0.1289 v -0.83203 H 89.25 l 0.339844,-1.65235 h 0.703125 v 1.65235 h 2.53125 v 0.83203 h -2.53125 v 3.82031 q 0,0.46289 0.246093,0.68555 0.251954,0.22265 0.820313,0.22265 0.785156,0 1.740234,-0.19922 v 0.80274 q -0.990234,0.26953 -1.96289,0.26953 -0.949219,0 -1.423828,-0.39844 -0.47461,-0.4043 -0.47461,-1.27148 v -3.93164 z"
         id="path177" />
      <path
         style="fill:#d4d4d4"
         d="m 97.441406,339.80819 q 0,1.61133 0.498047,2.91211 0.498047,1.30078 1.623047,2.68359 h -1.113281 q -1.125,-1.38281 -1.617188,-2.67773 -0.486328,-1.30078 -0.486328,-2.92969 0,-1.59961 0.480469,-2.88281 0.480469,-1.28906 1.623047,-2.69531 H 99.5625 q -1.125,1.38281 -1.623047,2.68945 -0.498047,1.30078 -0.498047,2.90039 z"
         id="path178" />
      <path
         style="fill:#9ecbff"
         d="m 105.55078,337.96249 h -0.82617 l -0.24023,-3.74414 h 1.3125 z m 9.1582,4.95117 h -1.21875 q -0.43359,-1.61719 -0.6621,-2.46094 -0.22266,-0.84375 -0.47461,-1.96875 -0.16993,0.73242 -0.31641,1.32422 -0.14063,0.5918 -0.83789,3.10547 h -1.21875 l -1.23633,-7.9043 h 1.10742 l 0.63867,4.89258 q 0.0937,0.76758 0.19336,2.02734 0.1875,-0.80859 0.31055,-1.33593 0.12891,-0.52735 0.84375,-3.13477 h 1.02539 q 0.4043,1.48242 0.63281,2.33203 0.23438,0.84961 0.52149,2.13867 l 0.20508,-2.02734 0.60937,-4.89258 h 1.10742 z m 3.12305,-2.94727 q 0,1.06641 0.46875,1.66993 0.47461,0.60351 1.29492,0.60351 0.60352,0 1.05469,-0.25781 0.45703,-0.26367 0.60938,-0.71485 l 0.92578,0.26368 q -0.25782,0.72656 -0.94922,1.11328 -0.68555,0.38672 -1.64063,0.38672 -1.38281,0 -2.12695,-0.86133 -0.74414,-0.86133 -0.74414,-2.4668 0,-1.56445 0.72656,-2.40234 0.73242,-0.84375 2.10938,-0.84375 1.37695,0 2.08593,0.83789 0.70899,0.83789 0.70899,2.53125 v 0.14062 z m 1.74024,-2.73047 q -0.78516,0 -1.24219,0.51563 -0.45703,0.50977 -0.48633,1.40625 h 3.42188 q -0.16407,-1.92188 -1.69336,-1.92188 z m 8.46679,4.81641 1.64649,0.0293 v 0.83203 l -2.16797,-0.0234 q -0.66211,-0.11719 -0.9668,-0.52734 -0.1289,-0.17578 -0.14648,-0.96094 v -6.35156 h -1.69336 v -0.83203 h 2.74804 v 7.30664 q 0.006,0.26367 0.14649,0.39258 0.12305,0.11132 0.43359,0.13476 z m 0.0234,0.0293 z m -0.60352,-0.55664 z m 0.0937,1.38867 z m -1.14843,-0.83203 v -0.67969 z m 4.70507,-2.34375 q 0,-1.58203 0.75586,-2.43164 0.75586,-0.84961 2.18555,-0.84961 1.06641,0 1.75781,0.51562 0.69141,0.50977 0.85547,1.37696 l -1.125,0.082 q -0.0937,-0.53321 -0.46875,-0.83789 -0.375,-0.31055 -1.0664,-0.31055 -0.92579,0 -1.35938,0.57422 -0.42773,0.57422 -0.42773,1.85742 0,1.30078 0.42773,1.9043 0.43359,0.59765 1.35352,0.59765 0.63281,0 1.04882,-0.31054 0.41602,-0.31055 0.51563,-0.94922 l 1.11328,0.0703 q -0.0762,0.5625 -0.42773,1.02539 -0.34571,0.45703 -0.91993,0.7207 -0.57421,0.25782 -1.2832,0.25782 -1.43555,0 -2.18555,-0.84375 -0.75,-0.84375 -0.75,-2.44922 z m 12.86719,0 q 0,1.59961 -0.73828,2.44922 -0.73242,0.84375 -2.12109,0.84375 -1.35938,0 -2.08594,-0.85547 -0.7207,-0.85547 -0.7207,-2.4375 0,-1.63477 0.73828,-2.45508 0.74414,-0.82617 2.10351,-0.82617 1.42969,0 2.12696,0.81445 0.69726,0.81445 0.69726,2.4668 z m -1.10742,0 q 0,-1.25977 -0.4043,-1.88086 -0.39843,-0.6211 -1.29492,-0.6211 -0.9082,0 -1.33008,0.63282 -0.42187,0.63281 -0.42187,1.86914 0,1.23047 0.42187,1.875 0.42188,0.63867 1.26563,0.63867 0.93164,0 1.34765,-0.62695 0.41602,-0.62696 0.41602,-1.88672 z m 4.99219,3.17578 v -4.01953 q 0,-0.90235 -0.14649,-1.25977 -0.14062,-0.36328 -0.52148,-0.36328 -0.375,0 -0.60938,0.5625 -0.22851,0.5625 -0.22851,1.52344 v 3.55664 h -0.99024 v -4.98633 q 0,-1.10742 -0.0351,-1.35351 h 0.87304 l 0.0352,0.74414 v 0.28125 h 0.0117 q 0.19922,-0.59766 0.50391,-0.86719 0.30468,-0.27539 0.76171,-0.27539 0.51563,0 0.76758,0.28125 0.25782,0.28125 0.36914,0.86719 h 0.0117 q 0.23438,-0.6211 0.55664,-0.88477 0.32813,-0.26367 0.82617,-0.26367 0.69141,0 0.99024,0.5039 0.29883,0.50391 0.29883,1.72852 v 4.22461 h -0.98438 v -4.01953 q 0,-0.90235 -0.14648,-1.25977 -0.14063,-0.36328 -0.52149,-0.36328 -0.38672,0 -0.61523,0.49219 -0.22266,0.49219 -0.22266,1.47656 v 3.67383 z m 5.97656,-2.94727 q 0,1.06641 0.46875,1.66993 0.47461,0.60351 1.29492,0.60351 0.60352,0 1.05469,-0.25781 0.45703,-0.26367 0.60937,-0.71485 l 0.92579,0.26368 q -0.25782,0.72656 -0.94922,1.11328 -0.68555,0.38672 -1.64063,0.38672 -1.38281,0 -2.12695,-0.86133 -0.74414,-0.86133 -0.74414,-2.4668 0,-1.56445 0.72656,-2.40234 0.73242,-0.84375 2.10938,-0.84375 1.37695,0 2.08593,0.83789 0.70899,0.83789 0.70899,2.53125 v 0.14062 z m 1.74023,-2.73047 q -0.78515,0 -1.24218,0.51563 -0.45703,0.50977 -0.48633,1.40625 h 3.42187 q -0.16406,-1.92188 -1.69336,-1.92188 z m 11.88868,0.16993 v -0.83203 h 0.99609 l 0.33984,-1.65235 h 0.70313 v 1.65235 h 2.53125 v 0.83203 h -2.53125 v 3.82031 q 0,0.46289 0.24609,0.68555 0.25196,0.22265 0.82032,0.22265 0.78515,0 1.74023,-0.19922 v 0.80274 q -0.99023,0.26953 -1.96289,0.26953 -0.94922,0 -1.42383,-0.39844 -0.47461,-0.4043 -0.47461,-1.27148 v -3.93164 z m 12.51562,2.33203 q 0,1.59961 -0.73828,2.44922 -0.73242,0.84375 -2.12109,0.84375 -1.35938,0 -2.08594,-0.85547 -0.7207,-0.85547 -0.7207,-2.4375 0,-1.63477 0.73828,-2.45508 0.74414,-0.82617 2.10351,-0.82617 1.42969,0 2.12696,0.81445 0.69726,0.81445 0.69726,2.4668 z m -1.10742,0 q 0,-1.25977 -0.4043,-1.88086 -0.39843,-0.6211 -1.29492,-0.6211 -0.9082,0 -1.33008,0.63282 -0.42187,0.63281 -0.42187,1.86914 0,1.23047 0.42187,1.875 0.42188,0.63867 1.26563,0.63867 0.93164,0 1.34765,-0.62695 0.41602,-0.62696 0.41602,-1.88672 z m 15.63867,-2.36133 q 0,0.73242 -0.35156,1.30664 -0.3457,0.57422 -0.99609,0.89648 -0.64454,0.32227 -1.49415,0.32227 h -1.64648 v 3.01172 h -1.11914 v -7.9043 h 2.69531 q 1.39453,0 2.15039,0.62696 0.76172,0.62109 0.76172,1.74023 z m -1.125,0.0176 q 0,-1.48828 -1.92187,-1.48828 h -1.44141 v 3.11132 h 1.48828 q 0.87305,0 1.3711,-0.42773 0.5039,-0.42773 0.5039,-1.19531 z m 3.65625,2.57226 q 0,1.06641 0.46875,1.66993 0.47461,0.60351 1.29492,0.60351 0.60352,0 1.05469,-0.25781 0.45703,-0.26367 0.60938,-0.71485 l 0.92578,0.26368 q -0.25782,0.72656 -0.94922,1.11328 -0.68555,0.38672 -1.64063,0.38672 -1.38281,0 -2.12695,-0.86133 -0.74414,-0.86133 -0.74414,-2.4668 0,-1.56445 0.72656,-2.40234 0.73242,-0.84375 2.10938,-0.84375 1.37695,0 2.08593,0.83789 0.70899,0.83789 0.70899,2.53125 v 0.14062 z m 1.74024,-2.73047 q -0.78516,0 -1.24219,0.51563 -0.45703,0.50977 -0.48633,1.40625 h 3.42188 q -0.16407,-1.92188 -1.69336,-1.92188 z m 10.02539,5.02735 q 0.15234,0 0.3457,-0.041 v 0.65625 q -0.39844,0.0937 -0.81445,0.0937 -0.58594,0 -0.85547,-0.30468 -0.26367,-0.31055 -0.29883,-0.9668 h -0.0352 q -0.38086,0.70898 -0.90234,1.01953 -0.51563,0.31055 -1.27734,0.31055 -0.92579,0 -1.39454,-0.50391 -0.46875,-0.50391 -0.46875,-1.38281 0,-2.04492 2.66016,-2.07422 l 1.38281,-0.0234 v -0.3457 q 0,-0.76758 -0.31054,-1.10156 -0.31055,-0.33985 -0.99024,-0.33985 -0.6914,0 -0.99609,0.2461 -0.30469,0.24609 -0.36328,0.76171 l -1.10157,-0.0996 q 0.26954,-1.71094 2.47852,-1.71094 1.17188,0 1.75781,0.55078 0.5918,0.54492 0.5918,1.58203 v 2.73047 q 0,0.46875 0.12305,0.70898 0.12304,0.23438 0.46875,0.23438 z m -3.56836,-0.0352 q 0.5625,0 0.99609,-0.26953 0.43359,-0.26953 0.67383,-0.7207 0.24023,-0.45117 0.24023,-0.93164 v -0.52149 l -1.11328,0.0234 q -0.6914,0.0117 -1.05469,0.15234 -0.36328,0.14063 -0.56835,0.4336 -0.19922,0.28711 -0.19922,0.76758 0,0.48046 0.25781,0.77343 0.26367,0.29297 0.76758,0.29297 z m 9.67383,0.68555 -2.14454,-2.92383 -0.77343,0.57422 v 2.34961 h -1.05469 v -8.69531 h 1.05469 v 5.43164 l 2.7832,-3.07617 h 1.23633 l -2.57227,2.7246 2.70703,3.61524 z m 4.75195,0 v -1.75195 h 1.37695 v 1.75195 z m 9.19336,0.16406 q 0,1.0957 -0.65625,1.71094 -0.65625,0.61523 -1.86914,0.61523 -0.46289,0 -0.94336,-0.0762 -0.48047,-0.0762 -0.74414,-0.17578 v -0.82031 q 0.8789,0.19922 1.59961,0.19922 0.75,0 1.15429,-0.38672 0.4043,-0.38672 0.4043,-1.08399 v -5.65429 h -2.38477 v -0.83203 h 3.43946 z m -1.17188,-7.73437 v -1.125 h 1.17188 v 1.125 z m 9.68555,5.75976 q 0,0.90235 -0.68555,1.41797 -0.67968,0.50977 -1.88672,0.50977 -1.20703,0 -1.83984,-0.375 -0.62695,-0.38086 -0.82031,-1.19532 l 0.93164,-0.18164 q 0.11133,0.50391 0.47461,0.73828 0.36914,0.22852 1.2539,0.22852 1.58204,0 1.58204,-1.00195 0,-0.375 -0.28711,-0.60352 -0.28711,-0.23437 -0.87891,-0.38086 -1.54688,-0.38086 -1.96289,-0.59765 -0.41602,-0.2168 -0.63867,-0.53907 -0.22266,-0.32812 -0.22266,-0.81445 0,-0.86133 0.62109,-1.34766 0.6211,-0.48632 1.79883,-0.48632 1.03125,0 1.64649,0.39257 0.61523,0.38672 0.76758,1.13086 l -0.94922,0.11719 q -0.0645,-0.42187 -0.41602,-0.63867 -0.35156,-0.2168 -1.04883,-0.2168 -1.43554,0 -1.43554,0.88477 0,0.35156 0.24023,0.5625 0.24609,0.21094 0.78516,0.33984 l 0.69726,0.18164 q 0.95508,0.23438 1.3711,0.46289 0.42187,0.22852 0.66211,0.57422 0.24023,0.33985 0.24023,0.83789 z m 5.02734,-0.51562 h -0.86718 l -0.14063,-5.57227 h 1.14844 z m -1.01953,2.32617 v -1.17774 h 1.13672 v 1.17774 z m 8.19141,-4.95117 h -0.82617 l -0.24024,-3.74414 h 1.3125 z"
         id="path179" />
      <path
         style="fill:#d4d4d4"
         d="m 257.95312,339.79647 q 0,1.64063 -0.48632,2.93555 -0.48047,1.28906 -1.60547,2.67187 h -1.125 q 1.14844,-1.41211 1.64062,-2.71289 0.49219,-1.30664 0.49219,-2.88281 0,-1.57031 -0.49219,-2.87109 -0.49218,-1.30664 -1.64062,-2.71875 h 1.125 q 1.14258,1.40625 1.61719,2.68359 0.4746,1.27734 0.4746,2.89453 z"
         id="path180" />
      <path
         style="fill:#d4d4d4"
         d="m 44.912109,363.40389 v -0.81445 h 1.248047 q 0.533203,0 0.767578,-0.26367 0.240235,-0.25781 0.240235,-0.87891 v -2.0332 q 0,-0.59766 0.375,-1.03125 0.375,-0.43359 0.972656,-0.57422 v -0.0117 q -0.597656,-0.14648 -0.972656,-0.58594 -0.375,-0.43945 -0.375,-1.00781 v -2.02734 q 0,-0.61524 -0.234375,-0.87891 -0.234375,-0.26367 -0.773438,-0.26367 h -1.248047 v -0.81445 h 1.552735 q 0.779297,0 1.248047,0.48632 0.474609,0.48633 0.474609,1.28907 v 2.0625 q 0,0.61523 0.427734,0.97265 0.427735,0.35157 1.183594,0.38086 v 0.80274 q -0.761719,0.0293 -1.189453,0.38672 -0.421875,0.35156 -0.421875,0.97265 v 2.05664 q 0,0.79102 -0.480469,1.28321 -0.480469,0.49218 -1.242187,0.49218 z"
         id="path181" />
      <path
         style="fill:#d4d4d4"
         d="m 30.509766,381.40389 v -0.81445 h 1.248046 q 0.533204,0 0.767579,-0.26367 0.240234,-0.25781 0.240234,-0.87891 v -2.0332 q 0,-0.59766 0.375,-1.03125 0.375,-0.43359 0.972656,-0.57422 v -0.0117 q -0.597656,-0.14648 -0.972656,-0.58594 -0.375,-0.43945 -0.375,-1.00781 v -2.02734 q 0,-0.61524 -0.234375,-0.87891 -0.234375,-0.26367 -0.773438,-0.26367 h -1.248046 v -0.81445 H 32.0625 q 0.779297,0 1.248047,0.48632 0.474609,0.48633 0.474609,1.28907 v 2.0625 q 0,0.61523 0.427735,0.97265 0.427734,0.35157 1.183593,0.38086 v 0.80274 q -0.761718,0.0293 -1.189453,0.38672 -0.421875,0.35156 -0.421875,0.97265 v 2.05664 q 0,0.79102 -0.480469,1.28321 -0.480468,0.49218 -1.242187,0.49218 z"
         id="path182" />
      <path
         style="fill:#d4d4d4"
         d="m 15.808594,393.56796 v -1.20118 l 5.830078,-2.44921 v 0.90234 l -5.027344,2.14453 5.027344,2.15039 v 0.89649 z m 7.189453,3.46289 4.810547,-8.8125 h 1.042968 l -4.787109,8.8125 z"
         id="path183" />
      <path
         style="fill:#85e89d"
         d="m 35.742187,395.10311 q 0,0.90235 -0.685546,1.41797 -0.679688,0.50977 -1.886719,0.50977 -1.207031,0 -1.839844,-0.375 -0.626953,-0.38086 -0.820312,-1.19532 l 0.93164,-0.18164 q 0.111328,0.50391 0.47461,0.73828 0.36914,0.22852 1.253906,0.22852 1.582031,0 1.582031,-1.00195 0,-0.375 -0.287109,-0.60352 -0.28711,-0.23437 -0.878907,-0.38086 -1.546875,-0.38086 -1.96289,-0.59765 -0.416016,-0.2168 -0.638672,-0.53907 -0.222656,-0.32812 -0.222656,-0.81445 0,-0.86133 0.621093,-1.34766 0.621094,-0.48632 1.798829,-0.48632 1.03125,0 1.646484,0.39257 0.615234,0.38672 0.767578,1.13086 l -0.949219,0.11719 q -0.06445,-0.42187 -0.416015,-0.63867 -0.351563,-0.2168 -1.048828,-0.2168 -1.435547,0 -1.435547,0.88477 0,0.35156 0.240234,0.5625 0.246094,0.21094 0.785156,0.33984 l 0.697266,0.18164 q 0.955078,0.23438 1.371094,0.46289 0.421875,0.22852 0.662109,0.57422 0.240234,0.33985 0.240234,0.83789 z m 1.751954,-1.36523 q 0,-1.58203 0.755859,-2.43164 0.755859,-0.84961 2.185547,-0.84961 1.066406,0 1.757812,0.51562 0.691407,0.50977 0.855469,1.37696 l -1.125,0.082 q -0.09375,-0.53321 -0.46875,-0.83789 -0.375,-0.31055 -1.066406,-0.31055 -0.925781,0 -1.359375,0.57422 -0.427735,0.57422 -0.427735,1.85742 0,1.30078 0.427735,1.9043 0.433594,0.59765 1.353515,0.59765 0.632813,0 1.048829,-0.31054 0.416015,-0.31055 0.515625,-0.94922 l 1.113281,0.0703 q -0.07617,0.5625 -0.427735,1.02539 -0.345703,0.45703 -0.919921,0.7207 -0.574219,0.25782 -1.283204,0.25782 -1.435546,0 -2.185546,-0.84375 -0.75,-0.84375 -0.75,-2.44922 z m 12.5625,-2.20313 q -0.65625,-0.11133 -1.242188,-0.11133 -0.943359,0 -1.523437,0.70899 -0.580079,0.70898 -0.580079,1.80469 v 2.97656 H 45.65625 v -4.10742 q 0,-0.44532 -0.08203,-1.04883 -0.07617,-0.60352 -0.222657,-1.18359 h 1.001954 q 0.234375,0.80859 0.28125,1.46484 h 0.0293 q 0.292969,-0.65625 0.574219,-0.96094 0.28125,-0.31055 0.667969,-0.46289 0.386719,-0.1582 0.943359,-0.1582 0.609375,0 1.207032,0.0996 z M 55.5,396.08163 h 2.226562 v 0.83203 h -5.753906 v -0.83203 h 2.472656 v -4.67578 h -1.86914 v -0.83203 H 55.5 Z m -1.171875,-6.73828 v -1.125 H 55.5 v 1.125 z m 10.394531,4.37109 q 0,3.31641 -2.296875,3.31641 -1.441406,0 -1.939453,-1.07813 h -0.0293 q 0.02344,0.0469 0.02344,0.97266 v 2.47851 h -1.060547 v -7.51757 q 0,-0.9961 -0.03516,-1.3125 h 1.02539 q 0.0059,0.0234 0.01758,0.17578 0.01172,0.14648 0.02344,0.43945 0.01758,0.28711 0.01758,0.42773 h 0.02344 q 0.292969,-0.61523 0.744141,-0.89062 0.457031,-0.28125 1.189453,-0.28125 1.160156,0 1.728516,0.80273 0.568359,0.79688 0.568359,2.4668 z m -1.089844,0 q 0,-1.32422 -0.357421,-1.88672 -0.357422,-0.56836 -1.125,-0.56836 -0.884766,0 -1.277344,0.64453 -0.392578,0.63868 -0.392578,1.93946 0,1.24804 0.392578,1.82812 0.392578,0.58008 1.265625,0.58008 0.779297,0 1.136719,-0.5918 0.357421,-0.59179 0.357421,-1.94531 z m 3.017579,-2.30859 v -0.83203 h 0.996093 l 0.339844,-1.65235 h 0.703125 v 1.65235 h 2.53125 v 0.83203 h -2.53125 v 3.82031 q 0,0.46289 0.246094,0.68555 0.251953,0.22265 0.820312,0.22265 0.785157,0 1.740235,-0.19922 v 0.80274 q -0.990235,0.26953 -1.962891,0.26953 -0.949219,0 -1.423828,-0.39844 -0.474609,-0.4043 -0.474609,-1.27148 v -3.93164 z"
         id="path184" />
      <path
         style="fill:#d4d4d4"
         d="m 73.417969,396.01132 v -0.89649 l 5.027343,-2.15039 -5.027343,-2.14453 v -0.90234 l 5.830078,2.44921 v 1.20118 z"
         id="path185" />
    </g>
  </g>
  <g
     inkscape:groupmode="layer"
     id="layer2"
     inkscape:label="color"
     style="mix-blend-mode:multiply"
     transform="translate(67.893251,-71.483868)" />
</svg>
